<svg width="162" height="162" viewBox="0 0 162 162" fill="none" xmlns="http://www.w3.org/2000/svg">
<path d="M80.7089 0.607422C36.4007 0.607422 0.319092 36.8163 0.319092 81.2808C0.319092 125.745 36.4007 161.954 80.7089 161.954C125.017 161.954 161.099 125.745 161.099 81.2808C161.243 36.8163 125.161 0.607422 80.7089 0.607422ZM157.491 87.5087C156.625 98.2266 153.449 108.22 148.831 116.766C144.357 125.311 138.295 132.553 132.089 138.201C125.739 143.85 119.1 147.905 112.749 150.657C106.543 153.409 100.77 155.002 96.0075 155.871C91.2447 156.74 87.3479 156.885 84.7501 157.03C82.1522 157.03 80.7089 157.03 80.7089 157.03C80.7089 157.03 82.1522 156.885 84.7501 156.885C87.3479 156.595 91.1004 156.306 95.8632 155.147C100.626 154.133 106.255 152.25 112.172 149.354C118.234 146.457 124.584 142.257 130.646 136.608C136.563 130.959 142.192 123.862 146.377 115.462C150.563 107.062 153.305 97.3576 154.171 87.2191C154.893 76.9357 153.594 66.3628 149.986 56.3691C147.388 48.9825 143.347 42.0304 138.584 35.8025C140.027 40.7269 141.615 47.5341 142.192 55.3553C142.048 55.2104 141.903 55.0656 141.759 54.9207C140.893 54.1966 139.883 53.9069 139.305 53.9069C139.017 53.9069 138.728 54.0517 138.584 54.0517C138.439 54.0517 138.295 54.1966 138.295 54.1966C138.295 54.1966 138.439 54.1966 138.584 54.1966C138.728 54.1966 139.017 54.3414 139.161 54.4862C139.594 54.7759 140.171 55.2104 140.749 55.9346C141.182 56.6588 141.615 57.6726 141.759 58.6865C141.759 58.8313 141.759 58.9761 141.759 59.121V59.5555C141.759 59.8451 141.759 60.1348 141.759 60.2797C141.759 60.859 141.615 61.2935 141.47 61.8729C141.326 62.3074 141.037 62.7419 140.749 63.0315C140.46 63.3212 140.316 63.466 139.738 63.6109C139.594 63.6109 139.017 63.6109 138.728 63.466C138.295 63.3212 138.007 63.0315 137.574 62.7419C136.852 62.1625 136.419 61.4383 136.13 61.0038C135.842 60.5693 135.697 60.1348 135.697 60.1348C135.697 60.1348 135.697 60.2797 135.697 60.4245C135.697 60.5693 135.697 60.859 135.697 61.1487C135.697 61.728 135.842 62.7419 136.419 63.6109C136.708 64.0454 137.141 64.6247 137.718 65.0592C138.295 65.4937 139.017 65.9282 140.027 65.9282C140.749 65.9282 141.903 65.6386 142.481 65.0592L142.625 64.9144C142.481 69.4043 141.903 74.1839 140.893 79.1083C141.903 79.1083 142.625 78.6738 143.202 78.2393C143.78 77.8048 144.213 77.3702 144.501 76.9357C144.79 76.5012 145.078 76.2116 145.223 76.0667C145.367 75.9219 145.511 75.7771 145.511 75.7771C145.511 75.7771 145.511 76.0667 145.511 76.3564C145.511 76.7909 145.367 77.3702 145.078 77.9496C144.79 78.5289 144.213 79.2531 143.491 79.8325C142.769 80.4118 141.903 80.7015 140.893 80.7015C139.883 80.7015 139.017 80.4118 138.295 79.8325C137.574 79.2531 137.141 78.5289 136.852 77.9496C136.563 77.3702 136.419 76.6461 136.419 76.3564C136.419 75.9219 136.419 75.7771 136.419 75.7771C136.419 75.7771 135.842 76.0667 135.697 77.3703C135.697 78.0944 135.697 78.9634 136.419 80.1221C136.996 81.136 138.295 82.2947 140.171 82.5843C139.883 83.4533 139.738 84.3224 139.45 85.1914C138.295 85.1914 137.285 85.6259 136.563 86.4949C135.264 88.0881 135.553 90.5503 137.141 91.8538C135.986 94.7505 134.543 97.7921 132.955 100.689C134.398 100.834 135.553 100.399 136.419 99.9646C137.574 99.3853 138.295 98.6611 138.872 98.0817C139.45 97.5024 139.738 97.0679 140.027 96.923C140.316 96.6334 140.46 96.6334 140.46 96.6334C140.46 96.6334 140.316 96.923 140.171 97.6472C139.883 98.2266 139.45 99.0956 138.728 99.9646C138.006 100.834 136.996 101.558 135.697 102.137C135.12 102.427 134.398 102.572 133.677 102.572C132.955 102.572 132.233 102.572 131.512 102.282C130.79 102.137 130.069 101.703 129.491 101.413C128.914 100.978 128.337 100.544 127.904 99.9646C127.038 98.8059 126.605 97.6472 126.46 96.4885C126.316 95.3299 126.316 94.4608 126.46 93.8815C126.605 93.3022 126.605 92.8677 126.605 92.8677C126.605 92.8677 126.46 92.8677 126.316 93.1573C126.027 93.447 125.739 93.8815 125.45 94.8953C125.306 95.7644 125.017 97.2127 125.739 98.9508C126.027 99.8198 126.605 100.834 127.471 101.703C128.337 102.572 129.491 103.441 131.079 103.875C130.502 104.889 129.78 105.903 129.203 106.917C128.77 106.917 128.337 106.917 127.904 106.917C125.45 107.351 123.863 109.379 124.151 111.407C124.151 111.551 124.295 111.841 124.295 111.986C122.564 111.551 120.976 109.958 120.543 107.496C119.821 103.151 116.069 94.1712 112.605 92.2883C108.853 90.2606 105.822 95.185 107.842 96.7782C112.461 100.254 110.151 106.917 110.584 112.71C110.729 115.027 111.883 116.91 112.894 118.648C110.584 119.373 109.141 121.545 109.574 123.573C109.719 124.731 110.44 125.6 111.45 126.18C110.007 127.339 108.708 128.352 107.265 129.366C107.265 129.221 107.265 129.077 107.265 128.932C107.121 127.049 106.543 125.456 105.822 124.297C105.1 123.138 104.234 122.269 103.512 121.835C101.925 120.676 100.77 120.531 100.193 120.531C99.4713 120.531 99.327 120.531 99.327 120.531C99.327 120.531 99.4713 120.531 99.76 120.676C100.049 120.821 100.482 120.966 101.059 121.255C102.069 121.835 103.657 123.138 104.667 125.021C105.677 126.904 105.966 129.656 104.956 132.263C104.09 134.87 101.925 137.187 99.327 138.491C96.7291 139.794 93.554 139.939 91.1004 138.925C88.5025 137.911 86.6263 135.884 85.9047 133.856C85.0387 131.828 85.183 129.946 85.4717 128.642C85.616 128.063 85.7603 127.483 85.9047 127.194C86.049 126.904 86.049 126.759 86.049 126.759C86.049 126.759 85.9047 126.904 85.4717 127.483C85.183 128.063 84.4614 129.077 84.3171 130.959C84.1727 131.828 84.1727 132.987 84.6057 134.435C84.8944 135.739 85.7603 137.187 87.0593 138.636C87.3479 138.925 87.6366 139.215 88.0696 139.505C86.482 140.084 84.8944 140.519 83.3068 140.953C82.8738 139.794 82.2965 139.07 81.7192 138.491C80.9976 137.767 80.2759 137.332 79.6986 137.042C78.3997 136.463 77.6781 136.463 77.1008 136.463C76.6678 136.463 76.3791 136.608 76.3791 136.608C76.3791 136.608 76.5234 136.608 76.6678 136.753C76.9564 136.898 77.2451 137.042 77.6781 137.187C78.544 137.622 79.5543 138.346 80.5646 139.505C80.9976 140.084 81.4305 140.808 81.7192 141.677C82.0079 142.546 81.8635 143.56 81.5749 144.429C80.8532 146.312 78.8327 147.471 76.8121 147.905C72.771 148.774 68.2968 146.891 66.5649 144.284C65.699 142.981 65.4103 141.677 65.5546 140.663C65.5546 140.229 65.699 139.794 65.8433 139.65C65.9876 139.36 65.9876 139.36 65.9876 139.36C65.9876 139.36 65.8433 139.36 65.4103 139.794C65.1217 140.229 64.5443 140.953 64.5443 142.401C64.5443 142.691 64.5444 143.126 64.6887 143.56C63.6784 143.56 62.6681 143.56 61.8022 143.56C61.9465 143.126 61.9465 142.546 61.8022 142.112C61.3692 139.794 58.7713 138.201 56.0291 138.781C55.8848 138.781 55.5961 138.925 55.4518 138.925C55.4518 137.911 55.7404 136.898 56.3177 136.173C58.9156 132.408 66.4206 129.656 66.7092 123.138C66.8536 118.359 46.5035 119.952 46.5035 127.628C46.6479 135.16 43.184 134.58 40.5862 138.781C40.1532 139.505 39.7202 140.084 39.2872 140.519C37.411 139.939 35.6791 139.505 34.2358 138.925C34.3801 138.781 34.3801 138.636 34.5245 138.491C35.1018 137.477 34.6688 136.029 33.3698 135.304C32.2152 134.58 30.6276 134.87 30.0503 135.884C29.906 136.173 29.906 136.318 29.7617 136.608C15.1847 122.849 6.09215 103.296 6.09215 81.5705C6.09215 81.5705 6.09215 80.1221 6.09215 77.5151C6.23647 74.9081 6.3808 70.9975 7.24676 66.2179C8.11272 61.4383 9.70031 55.6449 12.4425 49.417C15.1847 43.1891 19.2259 36.3818 24.8546 30.1539C30.4833 23.7811 37.5553 17.8428 46.2149 13.3529C54.7302 8.71821 64.6887 5.53183 75.3688 4.66282C85.9047 3.7938 97.1621 4.95249 107.698 8.86305C118.234 12.6288 128.048 18.8567 136.13 26.9675C144.068 35.0783 150.419 44.9271 154.171 55.5001C157.202 65.6386 158.357 76.9357 157.491 87.5087Z" fill="white" fill-opacity="0.2"/>
</svg>
