<svg width="51" height="52" viewBox="0 0 51 52" fill="none" xmlns="http://www.w3.org/2000/svg">
<path d="M25.5258 0.826111C11.4853 0.826111 0.0517578 12.3 0.0517578 26.39C0.0517578 40.4799 11.4853 51.9539 25.5258 51.9539C39.5662 51.9539 50.9998 40.4799 50.9998 26.39C51.0455 12.3 39.6119 0.826111 25.5258 0.826111ZM49.8564 28.3635C49.582 31.7598 48.5759 34.9266 47.1124 37.6344C45.6946 40.3423 43.7738 42.637 41.8072 44.427C39.7949 46.2169 37.6911 47.502 35.6788 48.374C33.7122 49.246 31.8828 49.7509 30.3736 50.0262C28.8644 50.3016 27.6296 50.3475 26.8063 50.3934C25.9831 50.3934 25.5258 50.3934 25.5258 50.3934C25.5258 50.3934 25.9831 50.3475 26.8063 50.3475C27.6296 50.2557 28.8186 50.1639 30.3279 49.7968C31.8371 49.4755 33.6208 48.8788 35.4959 47.9609C37.4167 47.043 39.429 45.7121 41.3498 43.9221C43.225 42.1322 45.0086 39.8833 46.3349 37.2214C47.6612 34.5594 48.5301 31.4844 48.8045 28.2717C49.0332 25.0131 48.6216 21.6627 47.4783 18.4959C46.655 16.1553 45.3745 13.9523 43.8652 11.9788C44.3226 13.5392 44.8257 15.6963 45.0086 18.1747C44.9629 18.1288 44.9171 18.0829 44.8714 18.037C44.597 17.8075 44.2768 17.7157 44.0939 17.7157C44.0024 17.7157 43.911 17.7616 43.8652 17.7616C43.8195 17.7616 43.7738 17.8075 43.7738 17.8075C43.7738 17.8075 43.8195 17.8075 43.8652 17.8075C43.911 17.8075 44.0024 17.8534 44.0482 17.8993C44.1854 17.9911 44.3683 18.1288 44.5513 18.3582C44.6885 18.5877 44.8257 18.909 44.8714 19.2303C44.8714 19.2762 44.8714 19.3221 44.8714 19.368V19.5056C44.8714 19.5974 44.8714 19.6892 44.8714 19.7351C44.8714 19.9187 44.8257 20.0564 44.7799 20.24C44.7342 20.3777 44.6427 20.5153 44.5513 20.6071C44.4598 20.6989 44.4141 20.7448 44.2311 20.7907C44.1854 20.7907 44.0024 20.7907 43.911 20.7448C43.7738 20.6989 43.6823 20.6071 43.5451 20.5153C43.3164 20.3318 43.1792 20.1023 43.0878 19.9646C42.9963 19.8269 42.9506 19.6892 42.9506 19.6892C42.9506 19.6892 42.9506 19.7351 42.9506 19.781C42.9506 19.8269 42.9506 19.9187 42.9506 20.0105C42.9506 20.1941 42.9963 20.5153 43.1792 20.7907C43.2707 20.9284 43.4079 21.112 43.5908 21.2497C43.7738 21.3874 44.0024 21.525 44.3226 21.525C44.5513 21.525 44.9171 21.4333 45.1001 21.2497L45.1458 21.2038C45.1001 22.6265 44.9171 24.1411 44.597 25.7015C44.9171 25.7015 45.1458 25.5639 45.3287 25.4262C45.5117 25.2885 45.6489 25.1508 45.7403 25.0131C45.8318 24.8754 45.9233 24.7836 45.969 24.7377C46.0148 24.6918 46.0605 24.646 46.0605 24.646C46.0605 24.646 46.0605 24.7377 46.0605 24.8295C46.0605 24.9672 46.0148 25.1508 45.9233 25.3344C45.8318 25.518 45.6489 25.7474 45.4202 25.931C45.1915 26.1146 44.9171 26.2064 44.597 26.2064C44.2768 26.2064 44.0024 26.1146 43.7738 25.931C43.5451 25.7474 43.4079 25.518 43.3164 25.3344C43.225 25.1508 43.1792 24.9213 43.1792 24.8295C43.1792 24.6918 43.1792 24.646 43.1792 24.646C43.1792 24.646 42.9963 24.7377 42.9506 25.1508C42.9506 25.3803 42.9506 25.6557 43.1792 26.0228C43.3622 26.3441 43.7738 26.7113 44.3683 26.803C44.2768 27.0784 44.2311 27.3538 44.1396 27.6292C43.7738 27.6292 43.4536 27.7669 43.225 28.0422C42.8134 28.5471 42.9048 29.3273 43.4079 29.7404C43.042 30.6583 42.5847 31.6221 42.0816 32.54C42.5389 32.5859 42.9048 32.4482 43.1792 32.3105C43.5451 32.1269 43.7738 31.8975 43.9567 31.7139C44.1396 31.5303 44.2311 31.3926 44.3226 31.3467C44.4141 31.2549 44.4598 31.2549 44.4598 31.2549C44.4598 31.2549 44.4141 31.3467 44.3683 31.5762C44.2768 31.7598 44.1396 32.0351 43.911 32.3105C43.6823 32.5859 43.3622 32.8154 42.9506 32.999C42.7676 33.0907 42.5389 33.1366 42.3103 33.1366C42.0816 33.1366 41.8529 33.1366 41.6243 33.0449C41.3956 32.999 41.1669 32.8613 40.984 32.7695C40.801 32.6318 40.6181 32.4941 40.4809 32.3105C40.2065 31.9434 40.0693 31.5762 40.0236 31.209C39.9778 30.8419 39.9778 30.5665 40.0236 30.3829C40.0693 30.1993 40.0693 30.0616 40.0693 30.0616C40.0693 30.0616 40.0236 30.0616 39.9778 30.1534C39.8864 30.2452 39.7949 30.3829 39.7034 30.7042C39.6577 30.9795 39.5662 31.4385 39.7949 31.9893C39.8864 32.2646 40.0693 32.5859 40.3437 32.8613C40.6181 33.1366 40.984 33.412 41.4871 33.5497C41.3041 33.871 41.0754 34.1922 40.8925 34.5135C40.7553 34.5135 40.6181 34.5135 40.4809 34.5135C39.7034 34.6512 39.2003 35.2937 39.2918 35.9363C39.2918 35.9822 39.3375 36.074 39.3375 36.1199C38.7887 35.9822 38.2857 35.4773 38.1484 34.6971C37.9198 33.3202 36.7307 30.4747 35.6331 29.8781C34.444 29.2355 33.4836 30.796 34.1238 31.3008C35.5873 32.4023 34.8556 34.5135 34.9928 36.3493C35.0385 37.0837 35.4044 37.6803 35.7245 38.2311C34.9928 38.4605 34.5354 39.149 34.6726 39.7915C34.7184 40.1587 34.947 40.4341 35.2672 40.6176C34.8098 40.9848 34.3982 41.3061 33.9409 41.6273C33.9409 41.5814 33.9409 41.5355 33.9409 41.4897C33.8952 40.893 33.7122 40.3882 33.4835 40.021C33.2549 39.6538 32.9805 39.3785 32.7518 39.2408C32.2487 38.8736 31.8828 38.8277 31.6999 38.8277C31.4712 38.8277 31.4255 38.8277 31.4255 38.8277C31.4255 38.8277 31.4712 38.8277 31.5627 38.8736C31.6542 38.9195 31.7914 38.9654 31.9743 39.0572C32.2945 39.2408 32.7975 39.6538 33.1177 40.2505C33.4378 40.8471 33.5293 41.7191 33.2091 42.5453C32.9347 43.3714 32.2487 44.1057 31.4255 44.5188C30.6023 44.9318 29.5961 44.9777 28.8186 44.6565C27.9954 44.3352 27.4009 43.6926 27.1722 43.0501C26.8978 42.4076 26.9435 41.8109 27.035 41.3979C27.0807 41.2143 27.1265 41.0307 27.1722 40.9389C27.2179 40.8471 27.2179 40.8012 27.2179 40.8012C27.2179 40.8012 27.1722 40.8471 27.035 41.0307C26.9435 41.2143 26.7149 41.5355 26.6691 42.1322C26.6234 42.4076 26.6234 42.7747 26.7606 43.2337C26.8521 43.6467 27.1265 44.1057 27.5381 44.5647C27.6296 44.6564 27.721 44.7482 27.8582 44.84C27.3552 45.0236 26.8521 45.1613 26.349 45.299C26.2118 44.9318 26.0289 44.7023 25.8459 44.5188C25.6172 44.2893 25.3886 44.1516 25.2056 44.0598C24.794 43.8762 24.5654 43.8762 24.3824 43.8762C24.2452 43.8762 24.1537 43.9221 24.1537 43.9221C24.1537 43.9221 24.1995 43.9221 24.2452 43.968C24.3367 44.0139 24.4282 44.0598 24.5654 44.1057C24.8398 44.2434 25.1599 44.4729 25.48 44.84C25.6172 45.0236 25.7544 45.2531 25.8459 45.5285C25.9374 45.8038 25.8917 46.1251 25.8002 46.4005C25.5715 46.9971 24.9312 47.3643 24.291 47.502C23.0104 47.7774 21.5926 47.1807 21.0438 46.3546C20.7694 45.9415 20.6779 45.5285 20.7237 45.2072C20.7237 45.0695 20.7694 44.9318 20.8151 44.8859C20.8609 44.7941 20.8609 44.7941 20.8609 44.7941C20.8609 44.7941 20.8151 44.7941 20.6779 44.9318C20.5865 45.0695 20.4035 45.299 20.4035 45.7579C20.4035 45.8497 20.4035 45.9874 20.4493 46.1251C20.1291 46.1251 19.809 46.1251 19.5346 46.1251C19.5803 45.9874 19.5803 45.8038 19.5346 45.6662C19.3974 44.9318 18.5742 44.427 17.7052 44.6106C17.6595 44.6106 17.568 44.6565 17.5223 44.6565C17.5223 44.3352 17.6137 44.0139 17.7967 43.7844C18.6199 42.5911 20.9981 41.7191 21.0895 39.6538C21.1353 38.1393 14.6867 38.6441 14.6867 41.0766C14.7325 43.4632 13.6349 43.2796 12.8116 44.6106C12.6744 44.84 12.5372 45.0236 12.4 45.1613C11.8055 44.9777 11.2567 44.84 10.7993 44.6565C10.8451 44.6106 10.8451 44.5647 10.8908 44.5188C11.0737 44.1975 10.9365 43.7385 10.5249 43.5091C10.159 43.2796 9.65597 43.3714 9.47303 43.6926C9.42729 43.7844 9.42729 43.8303 9.38156 43.9221C4.76239 39.562 1.88113 33.3661 1.88113 26.4818C1.88113 26.4818 1.88113 26.0228 1.88113 25.1967C1.92687 24.3706 1.9726 23.1314 2.24701 21.6168C2.52141 20.1023 3.02449 18.2665 3.89344 16.2929C4.76239 14.3194 6.04295 12.1623 7.82659 10.1888C9.61023 8.16941 11.8512 6.28769 14.5953 4.86493C17.2936 3.39627 20.4493 2.38656 23.8336 2.11119C27.1722 1.83581 30.7395 2.20298 34.0781 3.44216C37.4167 4.63545 40.5266 6.60896 43.0878 9.17912C45.6031 11.7493 47.6155 14.8702 48.8045 18.2206C49.765 21.4333 50.1308 25.0131 49.8564 28.3635Z" fill="white"/>
</svg>
